<mxfile host="app.diagrams.net" modified="2024-01-09T01:53:06.197Z" agent="Mozilla/5.0 (Windows NT 10.0; Win64; x64) AppleWebKit/537.36 (KHTML, like Gecko) Chrome/119.0.0.0 Safari/537.36 Edg/119.0.0.0" version="22.1.17" etag="DdkV2wyaB4grvEP4pdjL" type="github">
  <diagram name="第 1 页" id="MgBG04Z0nhD9RCTYYODf">
    <mxGraphModel>
      <root>
        <mxCell id="0" />
        <mxCell id="1" parent="0" />
      </root>
    </mxGraphModel>
  </diagram>
</mxfile>
